G04 #@! TF.GenerationSoftware,KiCad,Pcbnew,5.1.10-1.fc34*
G04 #@! TF.CreationDate,2021-07-25T00:14:55-03:00*
G04 #@! TF.ProjectId,rf-splitter,72662d73-706c-4697-9474-65722e6b6963,v0.0*
G04 #@! TF.SameCoordinates,Original*
G04 #@! TF.FileFunction,Profile,NP*
%FSLAX46Y46*%
G04 Gerber Fmt 4.6, Leading zero omitted, Abs format (unit mm)*
G04 Created by KiCad (PCBNEW 5.1.10-1.fc34) date 2021-07-25 00:14:55*
%MOMM*%
%LPD*%
G01*
G04 APERTURE LIST*
G04 #@! TA.AperFunction,Profile*
%ADD10C,0.050000*%
G04 #@! TD*
G04 APERTURE END LIST*
D10*
X168470000Y-136420000D02*
G75*
G02*
X165210000Y-139590000I-3215000J45000D01*
G01*
X165210000Y-139590000D02*
X165055413Y-139587565D01*
X130314600Y-115487819D02*
G75*
G02*
X133350000Y-116636800I0J-4583981D01*
G01*
X165055433Y-139586108D02*
G75*
G02*
X163068000Y-138861800I44567J3211108D01*
G01*
X133350000Y-116636800D02*
X163068000Y-138861800D01*
X87081540Y-138943924D02*
G75*
G02*
X85085349Y-139610095I-1951540J2523924D01*
G01*
X87081540Y-138943924D02*
X118389400Y-116408200D01*
X118389331Y-116408108D02*
G75*
G02*
X121145400Y-115487200I2756069J-3663692D01*
G01*
X125730000Y-115487200D02*
X130314600Y-115487200D01*
X121145400Y-115487200D02*
X125730000Y-115487200D01*
X167426527Y-134047000D02*
G75*
G02*
X168470000Y-136420000I-2176527J-2373000D01*
G01*
X141196721Y-107469014D02*
G75*
G02*
X140430000Y-105400000I2408279J2069014D01*
G01*
X141198600Y-107467400D02*
X167426527Y-134047000D01*
X81939869Y-136377950D02*
G75*
G02*
X82981800Y-134061200I3190131J-42050D01*
G01*
X111296762Y-105400000D02*
G75*
G02*
X110439199Y-107568999I-3171762J0D01*
G01*
X110439200Y-107569000D02*
X82981800Y-134061200D01*
X141164554Y-87529028D02*
X164999103Y-60452585D01*
X164999103Y-60452585D02*
G75*
G03*
X165735000Y-58420000I-2439103J2032585D01*
G01*
X141164554Y-87529028D02*
G75*
G03*
X140430000Y-89560000I2440446J-2030972D01*
G01*
X86460897Y-60452585D02*
G75*
G02*
X85725000Y-58420000I2439103J2032585D01*
G01*
X110565446Y-87529028D02*
G75*
G02*
X111300000Y-89560000I-2440446J-2030972D01*
G01*
X110566200Y-87528400D02*
X86461600Y-60452000D01*
X88900000Y-47625000D02*
X162560000Y-47625000D01*
X165735000Y-50800000D02*
X165735000Y-58420000D01*
X85725000Y-50800000D02*
X85725000Y-58420000D01*
X111300000Y-89560000D02*
X111300000Y-105400000D01*
X140430000Y-89560000D02*
X140430000Y-105400000D01*
X85085349Y-139610095D02*
G75*
G02*
X81939870Y-136377950I44651J3190095D01*
G01*
X162560000Y-47625000D02*
G75*
G02*
X165735000Y-50800000I0J-3175000D01*
G01*
X85725000Y-50800000D02*
G75*
G02*
X88900000Y-47625000I3175000J0D01*
G01*
M02*
