M48
INCH,TZ
T1C0.0402
T2C0.1260
%
G90
G05
T1
X37000Y-20000
X37000Y-21000
X37000Y-22000
X37000Y-23000
X38000Y-20000
X38000Y-21000
X38000Y-22000
X38000Y-23000
X39000Y-20000
X39000Y-21000
X39000Y-22000
X39000Y-23000
X40000Y-20000
X40000Y-21000
X40000Y-22000
X40000Y-23000
X41000Y-20000
X41000Y-21000
X41000Y-22000
X41000Y-23000
X42000Y-20000
X42000Y-21000
X42000Y-22000
X42000Y-23000
X43000Y-20000
X43000Y-21000
X43000Y-22000
X43000Y-23000
X44000Y-20000
X44000Y-21000
X44000Y-22000
X44000Y-23000
X45000Y-20000
X45000Y-21000
X45000Y-22000
X45000Y-23000
X46000Y-20000
X46000Y-21000
X46000Y-22000
X46000Y-23000
X47000Y-20000
X47000Y-21000
X47000Y-22000
X47000Y-23000
X48000Y-20000
X48000Y-21000
X48000Y-22000
X48000Y-23000
X49000Y-20000
X49000Y-21000
X49000Y-22000
X49000Y-23000
X50000Y-20000
X50000Y-21000
X50000Y-22000
X50000Y-23000
X51000Y-20000
X51000Y-21000
X51000Y-22000
X51000Y-23000
X52000Y-20000
X52000Y-21000
X52000Y-22000
X52000Y-23000
X53000Y-20000
X53000Y-21000
X53000Y-22000
X53000Y-23000
X54000Y-20000
X54000Y-21000
X54000Y-22000
X54000Y-23000
X55000Y-20000
X55000Y-21000
X55000Y-22000
X55000Y-23000
X56000Y-20000
X56000Y-21000
X56000Y-22000
X56000Y-23000
X57000Y-20000
X57000Y-21000
X57000Y-22000
X57000Y-23000
X58000Y-20000
X58000Y-21000
X58000Y-22000
X58000Y-23000
X59000Y-20000
X59000Y-21000
X59000Y-22000
X59000Y-23000
X60000Y-20000
X60000Y-21000
X60000Y-22000
X60000Y-23000
X61000Y-20000
X61000Y-21000
X61000Y-22000
X61000Y-23000
X62000Y-20000
X62000Y-21000
X62000Y-22000
X62000Y-23000
T2
X33516Y-53709
X35000Y-20000
X52500Y-34079
X52500Y-42677
X64000Y-20000
X64984Y-53709
T0
M30
